<?xml version="1.0" encoding="UTF-8"?>
<svg id="_레이어_1" data-name="레이어 1" xmlns="http://www.w3.org/2000/svg" viewBox="0 0 21.87 25">
  <path d="M10.94,0c-.86,0-1.56.7-1.56,1.56v.94c-3.56.72-6.25,3.88-6.25,7.66v1.24c0,2.22-.76,4.37-2.14,6.1l-.73.91c-.28.35-.34.83-.14,1.24s.61.66,1.05.66h19.53c.45,0,.86-.26,1.05-.66s.14-.89-.14-1.24l-.73-.91c-1.38-1.73-2.14-3.89-2.14-6.1v-1.24c0-3.78-2.69-6.93-6.25-7.66v-.94c0-.86-.7-1.56-1.56-1.56ZM10.94,4.69c3.02,0,5.47,2.45,5.47,5.47v1.24c0,2.34.68,4.62,1.94,6.57H3.53c1.26-1.95,1.94-4.23,1.94-6.57v-1.24c0-3.02,2.45-5.47,5.47-5.47ZM14.06,21.88h-6.25c0,.83.33,1.63.91,2.21s1.38.91,2.21.91,1.63-.33,2.21-.91.91-1.38.91-2.21Z"/>
</svg>