<?xml version="1.0" encoding="UTF-8"?>
<svg id="_레이어_1" data-name="레이어 1" xmlns="http://www.w3.org/2000/svg" viewBox="0 0 25 25">
  <defs>
    <style>
      .cls-1 {
        isolation: isolate;
        opacity: .4;
      }
    </style>
  </defs>
  <path class="cls-1" d="M0,12.5c0-1.08.14-2.12.4-3.13h6.01c-.05.5-.09,1.02-.12,1.54,0,.13,0,.26-.02.4,0,.12,0,.24,0,.37v.03c0,.13,0,.25,0,.37v.02c0,.13,0,.25,0,.38v.02c0,.4,0,.8.02,1.2,0,.13,0,.26.01.39.02.52.06,1.04.12,1.54H.4c-.26-.99-.4-2.04-.4-3.12ZM.91,7.81C2.37,4.21,5.45,1.45,9.25.42c-1.22,1.69-2.16,4.3-2.65,7.39H.91ZM.91,17.19h5.69c.48,3.09,1.43,5.7,2.65,7.39-3.8-1.02-6.88-3.79-8.34-7.39ZM7.84,11.3c0-.13,0-.26.02-.4.03-.52.07-1.03.12-1.53h9.05c.11,1,.16,2.05.16,3.13s-.06,2.12-.16,3.13H7.98c-.05-.5-.09-1.01-.12-1.53-.01-.26-.02-.53-.03-.8,0-.13,0-.26,0-.39,0-.13,0-.25,0-.38v-.04c0-.14,0-.27,0-.4,0-.12,0-.25,0-.37v-.03c0-.12,0-.25.01-.38h0ZM8.19,7.81c.3-1.79.76-3.38,1.32-4.66.51-1.16,1.08-2.01,1.64-2.54.33-.32.63-.5.88-.6.16,0,.31,0,.46,0s.31,0,.46,0c.26.09.56.28.88.6.56.53,1.13,1.38,1.64,2.54.57,1.28,1.03,2.87,1.32,4.66h-8.63,0ZM8.19,17.19h8.63c-.3,1.79-.76,3.38-1.32,4.66-.51,1.16-1.08,2.01-1.64,2.54-.33.32-.62.5-.88.6-.16,0-.31,0-.46,0s-.31,0-.46,0c-.26-.09-.56-.28-.88-.6-.56-.53-1.13-1.38-1.64-2.54-.57-1.28-1.03-2.87-1.32-4.66h0ZM15.75.42c3.8,1.02,6.88,3.78,8.34,7.39h-5.69c-.48-3.09-1.43-5.7-2.65-7.39ZM15.75,24.58c1.22-1.69,2.16-4.3,2.65-7.39h5.69c-1.46,3.6-4.54,6.37-8.34,7.39h0ZM18.59,9.37h6.01c.26,1,.4,2.05.4,3.13s-.14,2.12-.4,3.13h-6.01c.1-1.01.16-2.05.16-3.13s-.05-2.12-.16-3.13Z"/>
  <path d="M16.81,17.19c-.3,1.79-.76,3.38-1.32,4.66-.51,1.16-1.08,2.01-1.64,2.54-.33.32-.62.5-.88.6.96-.03,1.89-.18,2.78-.42,1.22-1.69,2.16-4.3,2.65-7.39h5.69c.21-.5.38-1.03.51-1.56h-6.01c.1-1.01.16-2.05.16-3.13s-.05-2.12-.16-3.13h6.01c-.14-.54-.31-1.06-.51-1.56h-5.69c-.48-3.09-1.43-5.69-2.65-7.38-.89-.24-1.83-.38-2.78-.42.26.09.56.28.88.6.56.53,1.13,1.38,1.64,2.54.57,1.28,1.03,2.87,1.32,4.66h-8.63c.3-1.79.76-3.38,1.32-4.66.51-1.16,1.08-2.01,1.64-2.54.33-.32.63-.5.88-.6-.96.03-1.89.18-2.78.42-1.22,1.69-2.17,4.3-2.65,7.39H.91c-.21.5-.38,1.03-.51,1.56h6.01c-.1,1.01-.16,2.05-.16,3.13s.05,2.12.16,3.13H.4c.14.54.31,1.06.51,1.56h5.69c.48,3.09,1.43,5.7,2.65,7.39.89.24,1.83.38,2.78.42-.26-.09-.56-.28-.88-.6-.56-.53-1.13-1.38-1.64-2.54-.57-1.28-1.03-2.87-1.32-4.66h8.63ZM17.19,12.5c0,1.08-.06,2.13-.16,3.13H7.98c-.11-1-.16-2.05-.16-3.13s.06-2.13.16-3.13h9.05c.11,1,.16,2.05.16,3.13Z"/>
</svg>