<?xml version="1.0" encoding="UTF-8"?>
<svg id="_레이어_1" data-name="레이어 1" xmlns="http://www.w3.org/2000/svg" viewBox="0 0 25 25">
  <defs>
    <style>
      .cls-1 {
        isolation: isolate;
        opacity: .4;
      }
    </style>
  </defs>
  <path class="cls-1" d="M0,12.5c0,6.9,5.6,12.5,12.5,12.5s12.5-5.6,12.5-12.5c0-1.45-.24-2.83-.7-4.13l-2.1,2.1-.45.45c.09.51.13,1.03.13,1.57,0,5.18-4.2,9.38-9.38,9.38S3.12,17.68,3.12,12.5,7.32,3.12,12.5,3.12c.53,0,1.05.04,1.57.13l.45-.45,2.1-2.1c-1.29-.45-2.68-.7-4.13-.7C5.6,0,0,5.6,0,12.5ZM5.47,12.5c0,3.88,3.15,7.03,7.03,7.03s7.03-3.15,7.03-7.03c0-.64-.08-1.25-.24-1.84l-1.4-.23-1.52,1.52c.02.18.04.37.04.55,0,2.16-1.75,3.91-3.91,3.91s-3.91-1.75-3.91-3.91,1.75-3.91,3.91-3.91c.19,0,.37.01.55.04l1.52-1.52-.23-1.4c-.59-.16-1.21-.24-1.84-.24-3.88,0-7.03,3.15-7.03,7.03Z"/>
  <path d="M16.17,7.17l-.41-2.48c-.08-.5.08-1.01.43-1.36l2.5-2.5c.4-.4,1.06-.25,1.27.26l1.12,2.81,2.81,1.12c.52.21.66.88.26,1.28l-2.5,2.5c-.36.36-.86.52-1.36.43l-2.48-.41-4.5,4.5c-.46.46-1.2.46-1.66,0s-.46-1.2,0-1.66l4.5-4.5h0Z"/>
</svg>