<?xml version="1.0" encoding="UTF-8"?>
<svg id="_레이어_1" data-name="레이어 1" xmlns="http://www.w3.org/2000/svg" viewBox="0 0 25 22.22">
  <defs>
    <style>
      .cls-1 {
        isolation: isolate;
        opacity: .4;
      }
    </style>
  </defs>
  <path class="cls-1" d="M2.78,11.74c3.24-2.83,6.48-5.67,9.72-8.51l9.73,8.51.02,8.74c0,.96-.78,1.74-1.74,1.74h-3.49c-.96,0-1.74-.78-1.74-1.74v-3.83c0-.77-.62-1.39-1.39-1.39h-2.78c-.77,0-1.39.62-1.39,1.39v3.83c0,.96-.78,1.74-1.74,1.74h-3.47c-.96,0-1.74-.78-1.74-1.74v-8.74Z"/>
  <path d="M11.59.34c.53-.46,1.31-.46,1.83,0l11.11,9.72c.58.5.63,1.38.13,1.96s-1.38.63-1.96.13L12.5,3.23,2.31,12.15c-.58.5-1.45.45-1.96-.13s-.45-1.45.13-1.96C.48,10.06,11.59.34,11.59.34Z"/>
</svg>