<?xml version="1.0" encoding="UTF-8"?>
<svg id="_레이어_1" data-name="레이어 1" xmlns="http://www.w3.org/2000/svg" viewBox="0 0 25 20.15">
  <defs>
    <style>
      .cls-1 {
        isolation: isolate;
        opacity: .4;
      }
    </style>
  </defs>
  <path class="cls-1" d="M0,4.72c0,.52.42.94.94.94h3.15c.52,0,.94-.42.94-.94s-.42-.94-.94-.94H.94c-.52,0-.94.42-.94.94ZM0,7.87c0,.52.42.94.94.94h3.78c.52,0,.94-.42.94-.94s-.42-.94-.94-.94H.94c-.52,0-.94.42-.94.94ZM0,11.02c0,.52.42.94.94.94h4.41c.52,0,.94-.42.94-.94s-.42-.94-.94-.94H.94c-.52,0-.94.42-.94.94ZM7.25,1.26c.08.17.14.35.17.53.61,3.18,1.21,6.37,1.82,9.55h11.36c1.28,0,2.41-.86,2.74-2.1l1.61-6c.04-.14.06-.28.06-.41,0-.84-.68-1.57-1.57-1.57H7.25Z"/>
  <path d="M2.52.94c0-.52.42-.94.94-.94h1.79c1.06,0,1.97.75,2.17,1.79l2.03,10.67c.09.44.48.77.93.77h11.35c.52,0,.94.42.94.94s-.42.94-.94.94h-11.35c-1.36,0-2.53-.97-2.78-2.3L5.57,2.15c-.03-.15-.16-.26-.31-.26h-1.79c-.52,0-.94-.42-.94-.94ZM7.56,18.26c0-1.04.85-1.89,1.89-1.89s1.89.85,1.89,1.89-.85,1.89-1.89,1.89-1.89-.85-1.89-1.89h0ZM20.78,16.38c1.04,0,1.89.85,1.89,1.89s-.85,1.89-1.89,1.89-1.89-.85-1.89-1.89.85-1.89,1.89-1.89Z"/>
</svg>